<svg data-v-d3f97b9e="" xmlns="http://www.w3.org/2000/svg" viewBox="0 0 125.88678662689544 60"><!----><!----><!----><g data-v-d3f97b9e="" id="160d648c-ebcf-4715-bc55-a65480bf87a5" fill="black" transform="matrix(5.660377154786554,0,0,5.660377154786554,-0.45283068232473767,-22.58490561683565)"><path d="M8.44 4.33L8.44 4.33L8.44 4.33Q8.86 4.33 9.30 4.25L9.30 4.25L9.30 4.25Q9.73 4.17 10.07 4.03L10.07 4.03L10.07 4.03Q10.05 4.93 9.61 5.37L9.61 5.37L9.61 5.37Q9.17 5.81 8.32 5.81L8.32 5.81L8.32 5.81Q7.91 5.81 7.41 5.74L7.41 5.74L7.41 5.74Q6.92 5.67 6.15 5.50L6.15 5.50L4.21 14.49L2.20 14.49L4.19 5.22L4.02 5.22L4.02 5.22Q2.66 5.22 2.02 5.91L2.02 5.91L2.02 5.91Q1.39 6.61 1.39 8.05L1.39 8.05L1.39 8.05Q1.39 8.32 1.42 8.51L1.42 8.51L1.42 8.51Q1.46 8.71 1.54 8.89L1.54 8.89L1.54 8.89Q1.57 8.95 1.57 8.97L1.57 8.97L1.57 8.97Q1.58 8.99 1.58 9.00L1.58 9.00L1.58 9.00Q0.80 9.00 0.44 8.67L0.44 8.67L0.44 8.67Q0.08 8.34 0.08 7.64L0.08 7.64L0.08 7.64Q0.08 5.98 1.34 4.99L1.34 4.99L1.34 4.99Q2.59 4.00 4.86 4.00L4.86 4.00L4.86 4.00Q5.32 4.00 5.75 4.04L5.75 4.04L5.75 4.04Q6.17 4.07 6.85 4.17L6.85 4.17L6.85 4.17Q7.43 4.27 7.76 4.30L7.76 4.30L7.76 4.30Q8.09 4.33 8.44 4.33ZM13.72 11.28L13.72 11.28L13.72 11.28Q13.89 10.77 14.08 10.04L14.08 10.04L14.08 10.04Q14.27 9.32 14.48 8.34L14.48 8.34L15.41 4.02L17.39 4.02L16.46 8.39L16.46 8.39Q16.13 10.00 15.83 10.96L15.83 10.96L15.83 10.96Q15.54 11.93 15.19 12.57L15.19 12.57L15.19 12.57Q14.63 13.64 13.78 14.11L13.78 14.11L13.78 14.11Q12.92 14.59 11.61 14.59L11.61 14.59L11.61 14.59Q10.21 14.59 9.55 14.06L9.55 14.06L9.55 14.06Q8.90 13.52 8.90 12.36L8.90 12.36L8.90 12.36Q8.90 11.86 9.01 11.17L9.01 11.17L9.01 11.17Q9.11 10.49 9.35 9.49L9.35 9.49L9.35 9.49Q9.48 8.95 9.73 7.95L9.73 7.95L9.73 7.95Q9.98 6.96 10.05 6.65L10.05 6.65L10.51 4.80L10.51 4.80Q9.34 5.11 8.69 5.96L8.69 5.96L8.69 5.96Q8.04 6.80 8.04 8.02L8.04 8.02L8.04 8.02Q8.04 8.30 8.07 8.50L8.07 8.50L8.07 8.50Q8.11 8.71 8.19 8.88L8.19 8.88L8.19 8.88Q8.22 8.93 8.22 8.95L8.22 8.95L8.22 8.95Q8.23 8.97 8.23 8.99L8.23 8.99L8.23 8.99Q7.48 8.99 7.11 8.67L7.11 8.67L7.11 8.67Q6.73 8.34 6.73 7.70L6.73 7.70L6.73 7.70Q6.73 6.93 7.24 6.20L7.24 6.20L7.24 6.20Q7.74 5.46 8.65 4.91L8.65 4.91L8.65 4.91Q9.39 4.47 10.27 4.23L10.27 4.23L10.27 4.23Q11.14 3.99 12.03 3.99L12.03 3.99L12.03 3.99Q12.21 3.99 12.34 4.00L12.34 4.00L12.34 4.00Q12.47 4.02 12.70 4.06L12.70 4.06L12.70 4.06Q12.46 4.93 12.10 6.23L12.10 6.23L12.10 6.23Q11.75 7.53 11.63 7.98L11.63 7.98L11.63 7.98Q11.14 9.80 10.98 10.62L10.98 10.62L10.98 10.62Q10.81 11.44 10.81 11.96L10.81 11.96L10.81 11.96Q10.81 12.60 11.05 12.91L11.05 12.91L11.05 12.91Q11.28 13.22 11.77 13.22L11.77 13.22L11.77 13.22Q12.60 13.22 12.98 12.79L12.98 12.79L12.98 12.79Q13.37 12.36 13.72 11.28ZM18.62 4.97L18.62 4.97L18.62 4.97Q19.33 4.51 20.15 4.25L20.15 4.25L20.15 4.25Q20.97 3.99 21.76 3.99L21.76 3.99L21.76 3.99Q21.85 3.99 21.97 4.00L21.97 4.00L21.97 4.00Q22.09 4.00 22.32 4.02L22.32 4.02L20.09 14.49L18.07 14.49L20.10 4.98L20.10 4.98Q19.15 5.38 18.65 6.16L18.65 6.16L18.65 6.16Q18.14 6.94 18.14 8.04L18.14 8.04L18.14 8.04Q18.14 8.30 18.18 8.50L18.18 8.50L18.18 8.50Q18.21 8.69 18.30 8.88L18.30 8.88L18.30 8.88Q18.33 8.93 18.33 8.95L18.33 8.95L18.33 8.95Q18.34 8.97 18.34 8.99L18.34 8.99L18.34 8.99Q17.56 8.99 17.20 8.66L17.20 8.66L17.20 8.66Q16.84 8.33 16.84 7.63L16.84 7.63L16.84 7.63Q16.84 6.93 17.31 6.23L17.31 6.23L17.31 6.23Q17.78 5.53 18.62 4.97Z"></path></g><!----><!----></svg>