<?xml version="1.0" standalone="no"?><!DOCTYPE svg PUBLIC "-//W3C//DTD SVG 1.1//EN" "http://www.w3.org/Graphics/SVG/1.1/DTD/svg11.dtd"><svg t="1568182312539" class="icon" viewBox="0 0 1024 1024" version="1.1" xmlns="http://www.w3.org/2000/svg" p-id="2728" xmlns:xlink="http://www.w3.org/1999/xlink" width="30" height="30"><defs><style type="text/css"></style></defs><path d="M1024 696.785529l-329.309016-110.54543a572.043506 572.043506 0 0 0 52.363624-112.174519 524.101699 524.101699 0 0 0 30.952721-115.199974l-213.178134-1.861818v-72.84362l258.327214-1.861818V230.865635H564.596468v-116.36361h-126.603608v116.36361H197.120188v51.432715l240.872672-1.62909v78.196346h-193.163592v40.727263h397.730819a382.603549 382.603549 0 0 1-19.549087 74.239983c-15.359997 41.192718-30.95272 77.265437-30.95272 77.265437s-186.181776-65.396349-285.090844-65.396348-218.065405 39.563627-229.701766 154.298146 55.854533 176.872687 150.574511 199.679955a376.552642 376.552642 0 0 0 258.559941-37.469083 601.134409 601.134409 0 0 0 151.039966-121.949063l383.999913 186.181776a189.439957 189.439957 0 0 1-186.181776 157.323601H189.672917A189.439957 189.439957 0 0 1 0.000233 834.327316V189.672917A189.439957 189.439957 0 0 1 189.672917 0.000233h644.654399A189.439957 189.439957 0 0 1 1024 189.672917v507.345339z m-479.6508-63.999986s-118.458155 144.058149-257.86176 144.05815-168.959962-68.421803-168.959961-117.759974 29.090902-102.632704 147.781784-110.545429 279.272664 84.014526 279.272664 84.014526z" fill="#02A9F0" p-id="2729"></path></svg>