<?xml version="1.0" standalone="no"?><!DOCTYPE svg PUBLIC "-//W3C//DTD SVG 1.1//EN" "http://www.w3.org/Graphics/SVG/1.1/DTD/svg11.dtd"><svg t="1568182359562" class="icon" viewBox="0 0 1024 1024" version="1.1" xmlns="http://www.w3.org/2000/svg" p-id="4724" xmlns:xlink="http://www.w3.org/1999/xlink" width="30" height="30"><defs><style type="text/css"></style></defs><path d="M897.024 728.064c-5.7344-69.632-42.1888-147.2512-57.344-186.1632l-38.912-100.352c-1.2288-41.7792 11.0592-137.6256-53.6576-257.8432-64.9216-120.2176-194.9696-131.072-219.136-132.3008-23.9616-1.024-174.4896-2.2528-248.4224 128.4096-73.9328 130.8672-54.0672 261.7344-54.0672 261.7344L184.32 542.72s-19.2512 46.08-35.84 102.1952c-16.7936 56.1152-33.1776 144.384-16.7936 162.2016 16.7936 18.0224 77.0048-82.1248 82.5344-91.136 0 0 4.3008 47.7184 15.5648 72.704 9.216 19.8656 31.1296 69.8368 75.3664 108.9536-21.2992 6.9632-72.4992 25.3952-79.872 44.4416-9.4208 24.3712 7.3728 27.0336 36.2496 28.672 28.672 1.6384 166.912 5.3248 233.0624-3.8912 0.6144-0.2048 1.4336-0.2048 2.048-0.4096 6.5536 0.2048 12.6976 0.4096 18.2272 0.4096 3.6864 0 7.9872 0 12.6976-0.2048 0.6144 0 0.8192 0.2048 1.4336 0.2048 66.1504 9.4208 204.3904 5.7344 233.0624 3.8912 28.672-1.6384 45.6704-4.5056 36.2496-28.672-7.5776-19.456-60.2112-38.0928-80.896-44.6464 6.5536-5.7344 12.9024-11.8784 18.8416-18.6368 74.5472-82.1248 68.4032-133.7344 71.4752-163.4304 0 0 62.8736 90.7264 76.3904 93.5936 14.1312 3.072 18.2272-11.264 12.9024-80.896z" fill="#FFFFFF" p-id="4725"></path><path d="M343.2448 924.0576c-14.1312-7.7824-26.624-16.9984-37.6832-26.8288-21.2992 6.9632-72.4992 25.3952-79.872 44.4416-9.4208 24.3712 7.3728 27.0336 36.2496 28.672 28.672 1.6384 166.912 5.3248 233.0624-3.8912 0.6144-0.2048 1.4336-0.2048 2.048-0.4096-40.5504-1.024-93.3888-8.3968-153.8048-41.984z m374.3744-26.8288c-65.536 58.1632-146.2272 67.9936-189.8496 69.4272 0.6144 0 0.8192 0.2048 1.4336 0.2048 66.1504 9.4208 204.3904 5.7344 233.0624 3.8912 28.672-1.6384 45.6704-4.5056 36.2496-28.672-7.5776-19.6608-60.2112-38.2976-80.896-44.8512z" fill="#EFAA1C" p-id="4726"></path><path d="M839.4752 541.696l-38.912-100.352s-267.264 84.5824-575.0784 0L184.32 542.5152s56.5248 20.0704 147.2512 34.4064v135.9872s72.0896 9.8304 126.3616 3.072v-125.952c110.1824 6.144 243.9168-2.6624 381.5424-48.3328z" fill="#DA2820" p-id="4727"></path><path d="M746.9056 183.7056c-64.7168-120.0128-194.7648-130.8672-218.9312-132.096-23.9616-1.2288-174.4896-2.4576-248.4224 128.4096-73.9328 130.8672-54.0672 261.7344-54.0672 261.7344 309.0432 86.2208 575.0784 0 575.0784 0-1.2288-41.984 11.264-138.0352-53.6576-258.048z m-310.0672 130.048c-28.0576 0-50.5856-32.5632-50.5856-72.704s22.7328-72.704 50.5856-72.704c28.0576 0 50.5856 32.5632 50.5856 72.704s-22.528 72.704-50.5856 72.704z m150.9376 0c-28.0576 0-50.5856-32.5632-50.5856-72.704s22.7328-72.704 50.5856-72.704c28.0576 0 50.5856 32.5632 50.5856 72.704s-22.7328 72.704-50.5856 72.704z" fill="#040000" p-id="4728"></path><path d="M429.8752 246.9888c0 15.9744 9.8304 29.0816 21.9136 29.0816 12.0832 0 21.9136-12.9024 21.9136-29.0816s-9.8304-29.0816-21.9136-29.0816c-12.0832 0-21.9136 13.1072-21.9136 29.0816zM587.776 228.7616c14.5408 0 34.6112 7.5776 30.3104 19.456-3.4816 9.4208-20.6848-3.072-26.8288-4.096-7.7824-1.024-19.2512-1.8432-28.672 9.6256-6.3488 7.5776-16.1792 6.7584-12.6976-3.6864 3.8912-11.6736 18.6368-21.2992 37.888-21.2992z" fill="#040000" p-id="4729"></path><path d="M337.1008 374.784c0 12.288 91.3408 57.9584 174.8992 57.344 83.5584-0.6144 176.7424-45.8752 176.7424-59.1872 0-13.1072-66.9696-36.4544-178.3808-36.4544-111.4112 0-173.2608 20.2752-173.2608 38.2976z" fill="#EFAA1C" p-id="4730"></path><path d="M897.024 728.064c-5.7344-69.632-42.1888-147.2512-57.344-186.1632-36.0448 11.8784-72.0896 21.2992-107.1104 28.672 3.072 15.5648 6.9632 49.5616 5.5296 114.4832-2.4576 96.8704-33.9968 175.7184-111.616 221.3888-77.6192 45.6704-214.016 35.6352-273.6128-38.912-56.1152-70.0416-74.3424-122.2656-60.8256-297.3696C224.4608 556.8512 184.32 542.72 184.32 542.72s-19.2512 46.08-35.84 102.1952c-16.7936 56.1152-33.1776 144.384-16.7936 162.2016 16.7936 18.0224 77.0048-82.1248 82.5344-91.136 0 0 4.3008 47.7184 15.5648 72.704s42.8032 96.8704 113.2544 135.7824c70.2464 38.912 130.048 42.5984 172.032 42.5984s146.8416-6.144 221.3888-88.2688c74.5472-82.1248 68.4032-133.7344 71.4752-163.4304 0 0 62.8736 90.7264 76.3904 93.5936 13.9264 3.072 18.0224-11.264 12.6976-80.896z" fill="#040000" p-id="4731"></path></svg>