<?xml version="1.0" standalone="no"?><!DOCTYPE svg PUBLIC "-//W3C//DTD SVG 1.1//EN" "http://www.w3.org/Graphics/SVG/1.1/DTD/svg11.dtd"><svg t="1568181099407" class="icon" viewBox="0 0 1024 1024" version="1.1" xmlns="http://www.w3.org/2000/svg" p-id="1994" xmlns:xlink="http://www.w3.org/1999/xlink" width="30" height="30"><defs><style type="text/css"></style></defs><path d="M648 385.6c9.6 0 17.6 1.6 25.6 1.6C649.6 275.2 532.8 192 400 192c-148.8 0-272 104-272 236.8 0 76.8 41.6 139.2 108.8 187.2l-27.2 83.2 94.4-49.6c33.6 6.4 60.8 14.4 96 14.4 8 0 17.6 0 25.6-1.6-6.4-19.2-8-38.4-8-57.6 0-120 102.4-219.2 230.4-219.2z m-145.6-75.2c20.8 0 33.6 14.4 33.6 35.2 0 20.8-14.4 35.2-33.6 35.2-20.8 0-41.6-14.4-41.6-35.2 0-22.4 20.8-35.2 41.6-35.2z m-192 68.8c-20.8 0-41.6-14.4-41.6-35.2 0-20.8 20.8-35.2 41.6-35.2s33.6 14.4 33.6 35.2c1.6 22.4-12.8 35.2-33.6 35.2zM896 601.6C896 491.2 787.2 400 665.6 400c-129.6 0-230.4 91.2-230.4 201.6 0 112 100.8 201.6 230.4 201.6 27.2 0 54.4-6.4 81.6-14.4l73.6 41.6-20.8-68.8c54.4-40 96-96 96-160z m-305.6-33.6c-14.4 0-27.2-14.4-27.2-27.2 0-14.4 14.4-27.2 27.2-27.2 20.8 0 33.6 14.4 33.6 27.2 0 12.8-12.8 27.2-33.6 27.2z m148.8 0c-14.4 0-27.2-14.4-27.2-27.2 0-14.4 14.4-27.2 27.2-27.2 20.8 0 33.6 14.4 33.6 27.2 0 12.8-12.8 27.2-33.6 27.2z" fill="#83D944" p-id="1995"></path></svg>